<svg width="600" height="70" viewBox="0 0 600 70" xmlns="http://www.w3.org/2000/svg">
  <path fill="white" d="M24.2355 16.982C38.2805 17.0438 45.3023 21.5915 45.3023 30.6238V56.049C45.3023 60.753 45.8625 64.155 46.9805 66.2608H33.5578C33.0568 64.7581 32.7431 63.1998 32.6238 61.621C28.7098 65.5795 23.3039 67.5582 16.4039 67.5582C11.3719 67.5582 7.38047 66.29 4.42852 63.7548C1.47656 61.2208 0 57.6905 0 53.1743C0 48.7818 1.39805 45.3798 4.19414 42.966C7.05469 40.4297 12.2414 38.8208 19.7625 38.1418C25.1063 37.5842 28.4918 36.8877 29.9215 36.0512C31.3523 35.2147 32.066 33.9348 32.066 32.2023C32.066 30.0358 31.4145 28.427 30.1078 27.3758C28.8023 26.3247 26.6285 25.7985 23.584 25.7985C20.7855 25.7985 18.6738 26.3702 17.2441 27.5147C15.8145 28.6603 14.9766 30.5013 14.7281 33.0365H1.4918C1.80234 27.7807 3.97617 23.7872 8.01563 21.0665C12.0563 18.3447 17.4621 16.982 24.2355 16.982ZM13.2363 52.6178C13.2363 56.7012 15.9398 58.7417 21.3457 58.7417C28.4297 58.6822 32.0039 55.062 32.066 47.8835V42.7805C31.0102 43.8328 28.3359 44.6052 24.0492 45.101C20.3203 45.535 17.5863 46.291 15.8461 47.3748C14.1059 48.4575 13.2363 50.204 13.2363 52.6178ZM65.066 18.284L73.9219 50.8573H74.1082L82.1238 18.2828H94.9875L103.189 50.7628H103.376L112.232 18.284H125.842L110.646 66.2608H97.0359L88.4602 34.0585H88.2738L80.0719 66.2608H66.3656L51.0797 18.2828H65.0602L65.066 18.284ZM153.712 16.9843C158.25 16.9843 162.288 18.0355 165.832 20.1402C169.376 22.2448 172.154 25.2898 174.172 29.2798C176.19 33.2698 177.204 37.8653 177.204 43.0617C177.204 43.5552 177.172 44.3602 177.11 45.4732H142.338C142.462 49.3103 143.471 52.2947 145.368 54.4285C147.264 56.5635 150.168 57.631 154.084 57.631C156.509 57.631 158.728 57.0278 160.747 55.8203C162.768 54.614 164.058 53.1452 164.616 51.4127H176.268C172.849 62.1787 165.332 67.5605 153.71 67.5605C149.298 67.4987 145.212 66.5385 141.455 64.6835C137.695 62.8273 134.694 59.9363 132.458 56.0058C130.222 52.0753 129.102 47.516 129.102 42.3197C129.102 37.4302 130.236 32.977 132.504 28.9543C134.771 24.9328 137.786 21.9345 141.546 19.9547C145.307 17.976 149.36 16.9843 153.71 16.9843H153.712ZM163.871 37.1222C163.253 33.5347 162.102 30.9353 160.424 29.3277C158.746 27.7177 156.354 26.9138 153.246 26.9138C150.016 26.9138 147.466 27.825 145.604 29.652C143.742 31.4778 142.652 33.9663 142.339 37.1222H163.874H163.871ZM204.702 16.9843C211.164 16.9843 216.214 18.284 219.847 20.8833C223.482 23.4815 225.52 27.286 225.954 32.2957H213.37C213.184 30.0055 212.346 28.3535 210.854 27.3327C209.363 26.3107 207.188 25.7985 204.328 25.7985C201.841 25.7985 199.993 26.1707 198.782 26.9138C197.57 27.657 196.964 28.7688 196.964 30.2552C196.964 31.3705 197.368 32.2957 198.176 33.0388C198.984 33.7808 200.212 34.4318 201.858 34.9872C203.504 35.5437 205.322 36.0092 207.312 36.379C213.34 37.5538 217.596 38.7613 220.082 39.9992C222.568 41.2382 224.386 42.721 225.536 44.4535C226.686 46.186 227.261 48.3198 227.261 50.8573C227.261 56.2392 225.286 60.368 221.34 63.2462C217.393 66.1232 212.034 67.5605 205.26 67.5605C198.176 67.5605 192.66 66.045 188.716 63.0128C184.772 59.9795 182.734 55.8682 182.61 50.6718H195.193C195.193 53.1452 196.157 55.1098 198.084 56.5658C200.012 58.0207 202.434 58.744 205.355 58.744C207.84 58.744 209.906 58.2038 211.554 57.1212C213.203 56.0373 214.024 54.5382 214.024 52.6213C214.024 51.3823 213.51 50.3615 212.484 49.5565C211.458 48.7527 210.014 48.0422 208.15 47.4227C206.286 46.8032 203.395 46.0915 199.482 45.2877C196.373 44.6705 193.608 43.834 191.186 42.7828C188.764 41.7317 186.914 40.3538 185.64 38.654C184.366 36.953 183.728 34.8647 183.728 32.389C183.728 29.2332 184.488 26.481 186.012 24.1302C187.536 21.7793 189.864 20.0002 193.004 18.7938C196.144 17.5875 200.04 16.9843 204.702 16.9843Z"/>
  <path fill="#FFC107" d="M265.726 13.7083C250.109 13.7083 237.45 26.3118 237.45 41.8577C237.45 57.4047 250.11 70.0082 265.724 70.0082C281.34 70.0082 294 57.4047 294 41.8577C294 26.3118 281.34 13.7095 265.724 13.7095L265.726 13.7083ZM265.726 57.8667C262.805 57.8672 259.948 57.02 257.503 55.4286C255.059 53.8372 253.133 51.5707 251.962 48.9067C255.818 52.1258 260.692 53.887 265.724 53.8802C270.962 53.8802 275.76 52.0088 279.484 48.9067C278.314 51.5702 276.389 53.8363 273.945 55.4276C271.501 57.019 268.644 57.8666 265.724 57.8667H265.726ZM288.074 34.1612C286.8 38.2025 287.886 45.1558 278.466 44.3392C272.268 43.8013 270.493 42.1085 267.54 34.678C267.288 34.0445 267.125 32.9992 265.69 33.04C264.88 33.0598 264.155 33.2022 263.903 34.6045C263.432 37.2167 259.849 44.3135 252.575 44.3053C246.151 44.2995 243.7 40.978 243.408 33.663C243.371 32.7542 242.576 32.5815 242.1 32.5722L241.607 29.3603C249.278 27.608 255.487 28.2112 262.366 29.806C263.386 30.0452 264.466 30.3053 265.602 30.3415C267.498 30.3998 269.629 29.9297 271.466 29.4688C278.718 27.6582 284.382 28.5997 289.842 29.7605L289.438 32.9735C288.586 32.9922 288.318 33.3877 288.074 34.1612Z"/>
  <path fill="white" d="M330.702 16.982C337.724 16.982 342.416 19.642 344.779 24.962C348.444 19.642 353.321 16.982 359.412 16.982C365.44 16.982 369.868 18.4975 372.696 21.5297C375.524 24.5618 376.936 28.7373 376.936 34.0585V66.2608H363.7V38.5117C363.7 34.3047 363.064 31.3973 361.789 29.7885C360.516 28.1808 358.45 27.3758 355.59 27.3758C349.686 27.3758 346.734 31.3973 346.734 39.4403V66.2608H333.498V37.954C333.498 33.873 332.845 31.087 331.54 29.6042C330.234 28.1202 328.216 27.3758 325.482 27.3758C322.934 27.3758 320.807 28.3815 319.096 30.3928C317.386 32.403 316.534 35.0478 316.534 38.3262V66.2608H303.295V18.2828H315.787V24.7777H315.974C319.639 19.5802 324.55 16.982 330.702 16.982ZM409.655 16.982C414.192 16.982 418.23 18.0332 421.774 20.1378C425.318 22.2425 428.095 25.2863 430.114 29.2775C432.132 33.2675 433.146 37.863 433.146 43.0605C433.146 43.5528 433.114 44.3578 433.051 45.4708H398.282C398.408 49.308 399.416 52.2923 401.312 54.4273C403.208 56.5612 406.112 57.6287 410.027 57.6287C412.452 57.6287 414.671 57.0255 416.692 55.8192C418.712 54.6128 420.001 53.1428 420.562 51.4103H432.212C428.794 62.1763 421.276 67.5582 409.655 67.5582C405.241 67.4963 401.156 66.5373 397.398 64.6812C393.64 62.8262 390.637 59.9352 388.402 56.0047C386.166 52.0742 385.045 47.5137 385.045 42.3173C385.045 37.429 386.18 32.9747 388.447 28.9532C390.716 24.9305 393.73 21.9322 397.489 19.9523C401.25 17.9737 405.305 16.982 409.655 16.982ZM419.814 37.1198C419.194 33.5323 418.044 30.9342 416.366 29.3253C414.688 27.7165 412.296 26.9115 409.188 26.9115C405.959 26.9115 403.409 27.8238 401.545 29.6497C399.684 31.4755 398.593 33.964 398.282 37.1198H419.816H419.814ZM454.118 0V24.962H454.398C455.89 22.4875 457.91 20.5403 460.458 19.117C463.007 17.6925 465.708 16.982 468.566 16.982C474.718 16.982 479.177 18.529 481.944 21.6218C484.71 24.7135 486.091 29.6042 486.091 36.2833V66.2608H472.854V38.976C472.854 35.077 472.218 32.1708 470.944 30.2528C469.67 28.336 467.48 27.3758 464.372 27.3758C460.83 27.3758 458.236 28.4433 456.588 30.5772C454.939 32.7122 454.118 36.2227 454.118 41.1098V66.2585H440.882V0.00233333H454.118V0ZM509.394 18.2828V45.4732C509.394 49.1843 509.986 52.0613 511.166 54.1018C512.346 56.1435 514.584 57.1643 517.877 57.1643C521.544 57.1643 524.17 56.0817 525.755 53.9175C527.338 51.7533 528.132 48.2872 528.132 43.5237V18.2828H541.368V66.2608H528.784V59.5782H528.504C525.21 64.8982 520.27 67.5582 513.684 67.5582C507.407 67.5582 502.916 65.9657 500.214 62.7795C497.512 59.5945 496.158 54.6898 496.158 48.0713V18.2828H509.394ZM564.671 0V24.1278H564.858C566.287 21.9625 568.322 20.23 570.964 18.9315C573.606 17.633 576.634 16.982 580.051 16.982C585.956 16.982 590.756 19.3317 594.451 24.0345C598.147 28.7373 600 34.8005 600 42.224C600 49.7105 598.166 55.8028 594.499 60.5057C590.834 65.2085 585.986 67.5582 579.96 67.5582C572.128 67.5582 566.878 65.0837 564.206 60.1335H564.018V66.2608H551.434V0H564.671ZM564.206 42.3173C564.206 46.956 565.23 50.6695 567.282 53.4532C569.334 56.2368 572.066 57.6287 575.484 57.6287C578.839 57.6287 581.558 56.2672 583.639 53.5465C585.722 50.827 586.764 47.0797 586.764 42.3173C586.764 37.6145 585.754 33.873 583.734 31.087C581.714 28.3022 578.934 26.9115 575.389 26.9115C571.91 26.9115 569.176 28.336 567.187 31.1803C565.2 34.0258 564.206 37.7382 564.206 42.3173Z"/>
</svg>
