<svg xmlns="http://www.w3.org/2000/svg" viewBox="0 0 500 500">
  <path d="M250.001 0C111.93 0 0 111.931 0 250.001c0 138.071 111.93 250.002 250.001 250.002C388.068 500.003 500 388.072 500 250.001 500 111.931 388.068 0 250.001 0zm-.003 392.177c-54.412 0-101.157-32.736-121.676-79.574 32.95 27.553 75.366 44.159 121.676 44.159 46.309 0 88.725-16.606 121.676-44.159-20.52 46.838-67.267 79.574-121.676 79.574zm197.617-210.552c-11.262 35.891-1.667 97.656-84.961 90.397-54.796-4.777-70.486-19.793-96.603-85.801-2.22-5.616-3.667-14.893-16.353-14.551-7.166.195-13.575 1.461-15.809 13.907-4.164 23.198-35.837 86.217-100.149 86.148-56.799-.057-78.468-29.544-81.057-94.511-.324-8.066-7.354-9.599-11.569-9.693l-4.356-28.525c67.823-15.564 122.735-10.208 183.554 3.965 9.021 2.103 18.546 4.443 28.609 4.753 16.759.511 35.597-3.658 51.841-7.74 64.121-16.107 114.208-7.73 162.479 2.585l-3.566 28.526c-7.537.167-9.902 3.68-12.06 10.54z"/>
</svg>
